HIERARCHY
ROOT pelvis
{
  OFFSET 0 100 0
  CHANNELS 6 Xposition Yposition Zposition Zrotation Xrotation Yrotation
  JOINT pelvis_right_femur
  {
    OFFSET -10.78128 -3.44521 -0.5502486
    CHANNELS 3 Zrotation Xrotation Yrotation
    JOINT right_femur_tibia
    {
      OFFSET -0.8047443 -44.0398 -0.1307829
      CHANNELS 3 Zrotation Xrotation Yrotation
      JOINT right_tibia_foot
      {
        OFFSET 3.006224 -47.83518 -5
        CHANNELS 3 Zrotation Xrotation Yrotation
        End Site
        {
          OFFSET 0 -5 15
        }
      }
    }
  }
  JOINT pelvis_left_femur
  {
    OFFSET 10.78128 -3.44521 -0.5502486
    CHANNELS 3 Zrotation Xrotation Yrotation
    JOINT left_femur_tibia
    {
      OFFSET 0.8047443 -44.0398 -0.1307829
      CHANNELS 3 Zrotation Xrotation Yrotation
      JOINT left_tibia_foot
      {
        OFFSET -4.370144 -48.10324 -4.275266
        CHANNELS 3 Zrotation Xrotation Yrotation
        End Site
        {
          OFFSET 0 -5 15
        }
      }
    }
  }
  JOINT pelvis_spine1
  {
    OFFSET 0 6.468898 -3.129235
    CHANNELS 3 Zrotation Xrotation Yrotation
    JOINT spine1
    {
      OFFSET 0 23.15396 4.99043
      CHANNELS 3 Zrotation Xrotation Yrotation
      JOINT spine2
      {
        OFFSET 0 20.79997 -5.064912
        CHANNELS 3 Zrotation Xrotation Yrotation
        JOINT neck
        {
          OFFSET 0 14.38658 9.616178
          CHANNELS 3 Zrotation Xrotation Yrotation
          End Site
          {
            OFFSET 0 20 0
          }
        }
      }
      JOINT right_manubrium
      {
        OFFSET -5.722621 16.35077 3.967754
        CHANNELS 3 Zrotation Xrotation Yrotation
        JOINT right_clavicle
        {
          OFFSET -13.16364 1.694482 -4.693211
          CHANNELS 3 Zrotation Xrotation Yrotation
          JOINT right_humerus
          {
            OFFSET -28.5034 -0.3100689 -2.792744
            CHANNELS 3 Zrotation Xrotation Yrotation
            JOINT right_radius
            {
              OFFSET -25.15693 0.02248979 -1.271978
              CHANNELS 3 Zrotation Xrotation Yrotation
              End Site
              {
                OFFSET -15 0 0
              }
            }
          }
        }
      }
      JOINT left_manubrium
      {
        OFFSET 5.722621 16.35077 3.967754
        CHANNELS 3 Zrotation Xrotation Yrotation
        JOINT left_clavicle
        {
          OFFSET 13.16364 1.694482 -4.693211
          CHANNELS 3 Zrotation Xrotation Yrotation
          JOINT left_humerus
          {
            OFFSET 29.39168 -1.063119 -2.237045
            CHANNELS 3 Zrotation Xrotation Yrotation
            JOINT left_radius
            {
              OFFSET 24.59957 -0.9528479 0.9047498
              CHANNELS 3 Zrotation Xrotation Yrotation
              End Site
              {
                OFFSET 15 -0 -0
              }
            }
          }
        }
      }
    }
  }
}
MOTION
Frames: 16
Frame Time: 0.0416666666667
36.37999 102.899 253.2715 1.663226 -7.283076 1.95564 1.171987 13.49818 3.988989 3.150446e-11 33.98877 -2.57422e-11 -2.897114 -10.71237 -2.233986 -3.187106 -15.73137 -10.39549 4.163913e-11 17.28566 3.149936e-11 -2.453079 -9.175986 20.54439 -2.641852 -0.5784851 6.516815 -0.1437902 10.08135 -3.943453 1.43514 23.31662 5.801544 2.293105 -19.19068 7.371855 1.679798 -22.13549 11.31363 84.06789 26.86856 -8.687929 4.769635e-12 2.099096e-13 21.55686 -22.73493 10.95982 13.83818 3.394841 -15.93556 -3.234509 -96.36937 24.37744 27.98456 9.812506e-12 -1.807185e-11 -7.731905 -1.858687 10.15335 15.17565
37.45644 102.855 258.337 1.69156 -6.910159 2.016751 0.9593147 10.80731 4.007311 2.990507e-11 35.65676 -2.427275e-11 -2.850664 -10.13708 -2.379452 -3.84218 -13.2103 -11.42246 4.600101e-11 14.74752 1.138668e-11 -2.000971 -10.48437 20.75348 -2.868522 -0.6906248 6.206283 -0.01754238 9.973037 -4.224026 1.418933 23.40317 6.051049 2.397995 -19.53538 7.648488 1.974742 -21.87391 11.2996 84.76615 27.44022 -9.52281 4.562268e-12 2.509713e-13 21.16334 -22.25371 10.89933 13.5561 3.63956 -16.2066 -3.200784 -96.53841 24.83904 27.33707 9.632633e-12 -1.659599e-11 -8.456875 -1.629645 10.45083 15.03971
38.51169 102.7671 263.2557 1.713534 -6.424734 2.211097 0.7815321 7.17867 3.969335 2.681842e-11 37.22687 -2.150104e-11 -2.841892 -9.388929 -2.591185 -4.541127 -9.837895 -12.55962 4.840139e-11 12.08638 -1.183062e-11 -1.474436 -12.0528 20.8949 -3.108084 -0.8232699 5.785843 0.1661899 9.841259 -4.607977 1.395301 23.46174 6.338926 2.523314 -19.93543 7.960514 2.314656 -21.45649 11.26728 85.59309 28.09456 -10.69704 4.17872e-12 2.825693e-13 20.47208 -21.56834 10.82658 13.11163 3.947128 -16.60741 -3.184907 -96.43569 25.39301 26.28051 9.097015e-12 -1.437343e-11 -9.557077 -1.274564 10.81932 14.75116
39.51785 102.6408 268.0152 1.699869 -5.856063 2.525244 0.7227698 2.719872 3.83908 2.160144e-11 38.07153 -1.689346e-11 -2.913432 -8.508375 -2.8724 -5.147747 -5.745876 -13.59362 4.704351e-11 10.00574 -3.485307e-11 -0.9701054 -13.66925 20.82455 -3.296773 -0.9576421 5.2645 0.4127858 9.696515 -5.085791 1.364337 23.43042 6.612573 2.647674 -20.31544 8.242248 2.639448 -20.83176 11.20045 86.3712 28.71414 -12.18868 3.542215e-12 2.893004e-13 19.36126 -20.65794 10.74437 12.4575 4.287298 -17.14653 -3.210461 -95.73254 25.95427 24.66111 7.998987e-12 -1.125752e-11 -11.09497 -0.7635195 11.21317 14.22386
40.46181 102.4812 272.6181 1.659618 -5.288124 2.938443 0.747228 -1.78439 3.661322 1.548439e-11 38.21341 -1.153225e-11 -3.027079 -7.628269 -3.16175 -5.591081 -1.641023 -14.39887 4.321752e-11 8.598128 -5.49118e-11 -0.5554827 -15.09476 20.57224 -3.419125 -1.074331 4.726865 0.6720225 9.54339 -5.562448 1.332554 23.29773 6.829276 2.747908 -20.59868 8.450368 2.904071 -20.10044 11.09504 86.85836 29.20513 -13.66616 2.794824e-12 2.867145e-13 18.05194 -19.66232 10.64457 11.70956 4.601334 -17.68961 -3.257364 -94.49525 26.42591 22.74763 6.67527e-12 -7.840055e-12 -12.73905 -0.1969339 11.55303 13.5625
41.32272 102.304 277.0894 1.579719 -4.757003 3.412041 0.8976614 -6.228076 3.439774 8.565864e-12 37.41223 -5.569361e-12 -3.212154 -6.797316 -3.464416 -5.858988 2.350231 -14.91933 3.688798e-11 8.266361 -7.01948e-11 -0.2884423 -16.23752 20.10026 -3.447586 -1.166557 4.195357 0.946589 9.411416 -6.040462 1.3005 23.08679 6.975055 2.820041 -20.78977 8.568587 3.087194 -19.2899 10.97415 87.16727 29.54709 -15.1743 1.911066e-12 2.741201e-13 16.53821 -18.63112 10.54837 10.88356 4.87872 -18.27554 -3.344814 -92.81418 26.73257 20.57789 5.050827e-12 -4.095505e-12 -14.5311 0.4292157 11.83556 12.7635
42.07813 102.1266 281.4601 1.457835 -4.276176 3.90546 1.173291 -10.52958 3.190421 1.263149e-12 35.65824 5.730124e-13 -3.468054 -6.0324 -3.774508 -5.975023 6.14908 -15.1569 2.856865e-11 9.050132 -8.018136e-11 -0.1825688 -17.06967 19.40376 -3.378738 -1.233391 3.680608 1.232451 9.304611 -6.512011 1.268622 22.80171 7.045893 2.861476 -20.88496 8.592461 3.184561 -18.41442 10.84269 87.29067 29.73794 -16.68644 9.022542e-13 2.605061e-13 14.84344 -17.58433 10.45666 9.993377 5.112957 -18.89713 -3.473374 -90.72929 26.83481 18.19269 3.171378e-12 -6.490077e-14 -16.44441 1.10476 12.05241 11.83952
42.71299 101.9643 285.7929 1.304832 -3.908102 4.373634 1.585635 -14.40039 2.950046 -5.713025e-12 33.08047 6.22165e-12 -3.805092 -5.424922 -4.087906 -5.961375 9.478612 -15.12513 1.882826e-11 11.11144 -8.339459e-11 -0.257122 -17.55174 18.57876 -3.215844 -1.272928 3.238637 1.51926 9.27526 -6.971443 1.238009 22.55067 7.056383 2.88423 -20.95176 8.546688 3.197826 -17.60524 10.76228 87.61528 29.79068 -18.26376 -1.752539e-13 2.513874e-13 13.12603 -16.67582 10.41797 9.142811 5.299737 -19.59782 -3.653524 -88.78492 26.71438 15.91592 1.142951e-12 4.011245e-12 -18.43118 1.78623 12.22948 10.891
43.22307 101.8291 290.1007 1.137906 -3.586846 4.797043 2.025168 -17.89764 2.729521 -1.1931e-11 30.16447 1.106607e-11 -4.144465 -4.883126 -4.372615 -5.892394 12.45542 -14.94271 8.740011e-12 13.54979 -8.318533e-11 -0.4107516 -17.81312 17.66541 -3.011235 -1.296372 2.831303 1.787497 9.24324 -7.382007 1.209564 22.24156 7.016636 2.88174 -20.93024 8.440864 3.160247 -16.79207 10.66392 87.64622 29.74976 -19.65391 -1.236548e-12 2.631995e-13 11.42115 -15.7941 10.36294 8.302981 5.441528 -20.23054 -3.835849 -86.63563 26.43896 13.64973 -7.871389e-13 7.966357e-12 -20.30082 2.441783 12.33331 9.930805
43.61717 101.723 294.4159 0.9769827 -3.354128 5.161317 2.478002 -20.80038 2.553559 -1.705331e-11 27.21864 1.486104e-11 -4.480627 -4.473102 -4.624915 -5.792009 14.88095 -14.66656 -1.156627e-12 16.27539 -7.951232e-11 -0.6237875 -17.88493 16.80012 -2.788178 -1.306033 2.50344 2.025651 9.248928 -7.740114 1.184496 21.98345 6.954757 2.871299 -20.89866 8.316288 3.089937 -16.10225 10.6014 87.76151 29.65133 -20.91114 -2.206051e-12 2.897159e-13 9.903183 -15.0755 10.33563 7.577222 5.544382 -20.8256 -4.020562 -84.8216 26.07035 11.71125 -2.508736e-12 1.151146e-11 -21.98728 3.023993 12.40347 9.071068
43.92031 101.6441 298.7709 0.8458266 -3.230307 5.461191 2.896535 -22.86065 2.436395 -2.075514e-11 24.63405 1.743512e-11 -4.781209 -4.233891 -4.826145 -5.681323 16.55296 -14.3569 -9.938541e-12 18.95009 -7.325203e-11 -0.8569628 -17.80405 16.1051 -2.579022 -1.303878 2.287844 2.21283 9.299677 -8.020164 1.165122 21.83016 6.89031 2.861274 -20.88928 8.202458 3.004607 -15.62419 10.59284 88.06597 29.52116 -21.95604 -2.981786e-12 3.176165e-13 8.743929 -14.60644 10.35302 7.049623 5.607391 -21.34412 -4.190137 -83.63837 25.7083 10.33546 -3.877722e-12 1.427516e-11 -23.3404 3.474055 12.4552 8.414663
44.17754 101.5838 303.2162 0.7743474 -3.257822 5.701193 3.243002 -23.82581 2.399854 -2.275779e-11 22.9012 1.869218e-11 -5.029854 -4.236966 -4.971295 -5.582546 17.25175 -14.11248 -1.639863e-11 21.32254 -6.542827e-11 -1.072654 -17.65009 15.77137 -2.424257 -1.294335 2.236392 2.333623 9.440071 -8.217944 1.15397 21.92054 6.865735 2.875421 -21.00675 8.160096 2.934523 -15.51889 10.70025 89.03206 29.39803 -22.84386 -3.456874e-12 3.250235e-13 8.176133 -14.55106 10.47146 6.851762 5.643307 -21.81612 -4.338065 -83.74104 25.51231 9.899212 -4.758666e-12 1.585629e-11 -24.2626 3.730861 12.54767 8.109606
44.42504 101.5418 307.7864 0.7482634 -3.429754 5.869699 3.538069 -23.56002 2.404185 -2.316069e-11 21.59893 1.86892e-11 -5.224196 -4.475069 -5.039731 -5.440343 16.855 -13.77722 -2.149417e-11 23.61852 -5.404204e-11 -1.320736 -17.24101 15.64021 -2.281104 -1.26284 2.338162 2.377949 9.628429 -8.290123 1.151614 22.11279 6.821519 2.880018 -21.11218 8.111937 2.830849 -15.67886 10.85887 90.04732 29.20952 -23.33894 -3.658339e-12 2.978277e-13 8.088598 -14.81403 10.64646 6.913525 5.613606 -22.13924 -4.460697 -84.49322 25.36779 10.16612 -5.303802e-12 1.626299e-11 -24.67554 3.796659 12.59896 8.070957
44.67642 101.528 312.5299 0.7359251 -3.760914 5.92673 3.880008 -22.10595 2.411755 -2.23833e-11 19.99279 1.763574e-11 -5.420902 -4.962122 -5.046356 -5.177054 15.35993 -13.16071 -2.813308e-11 26.61248 -3.483237e-11 -1.695447 -16.37466 15.52379 -2.07801 -1.193781 2.583701 2.362122 9.871871 -8.243166 1.156588 22.32815 6.703502 2.851723 -21.12678 7.98665 2.635695 -16.01536 11.04989 90.88929 28.87506 -23.45503 -3.706171e-12 2.305793e-13 8.288673 -15.33368 10.87466 7.151837 5.492192 -22.34246 -4.591117 -85.48611 25.11947 10.89864 -5.807403e-12 1.581825e-11 -24.71291 3.723543 12.5637 8.176431
44.95523 101.5509 317.5084 0.7505979 -4.297372 5.834374 4.246288 -19.10784 2.424074 -2.003763e-11 18.28117 1.526816e-11 -5.604016 -5.773251 -4.973201 -4.755907 12.45226 -12.25556 -3.685552e-11 30.25302 -6.446335e-12 -2.198701 -15.00351 15.51975 -1.82587 -1.081338 3.022084 2.263361 10.19322 -8.045539 1.172197 22.62317 6.515407 2.793687 -21.07111 7.795633 2.348237 -16.62978 11.29915 91.6888 28.3981 -23.11771 -3.5117e-12 1.130365e-13 8.942432 -16.22815 11.1766 7.662478 5.266259 -22.39889 -4.722665 -87.02345 24.7804 12.34104 -6.150867e-12 1.414917e-11 -24.23386 3.45318 12.44341 8.521915
45.26521 101.6249 322.663 0.767985 -4.821306 5.597709 4.493269 -15.43861 2.396788 -1.685706e-11 16.7241 1.232078e-11 -5.670515 -6.585032 -4.802116 -4.244304 9.019946 -11.21688 -4.556632e-11 33.20275 2.271305e-11 -2.677303 -13.41935 15.45615 -1.579754 -0.9499319 3.474165 2.092073 10.3955 -7.692992 1.19399 22.68043 6.250691 2.682383 -20.76379 7.511896 2.01749 -17.14818 11.41003 91.22574 27.88827 -22.06467 -3.137461e-12 -9.385637e-15 9.703285 -17.0265 11.35653 8.170106 4.967905 -22.09832 -4.781816 -87.64755 24.33617 13.66905 -6.221822e-12 1.176859e-11 -23.22151 3.069498 12.15631 8.886726
